<svg xmlns:xlink="http://www.w3.org/1999/xlink" height="244" viewBox="0 0 246 244"
    width="246" xmlns="http://www.w3.org/2000/svg">
  <defs>
    <linearGradient id="a" x1="0%" y1="46.04%" y2="46.04%">
      <stop offset="0%" stop-color="#F19134"/>
      <stop offset="100%" stop-color="#EA6228"/>
    </linearGradient>
    <polygon id="b" points=".353 17.52 11.645 17.52 11.645 .162 .353 .162 .353 17.52"/>
    <polygon id="d" points=".867 17.52 12.159 17.52 12.159 .162 .867 .162 .867 17.52"/>
  </defs>
  <g fill="none" fill-rule="evenodd">
    <g transform="translate(0 152)">
      <path
          d="M15.1426324,9.27362411 C15.738911,7.55483976 16.7980148,6.04803882 18.2092073,4.91937043 C19.5380561,3.83080702 21.2047966,3.24069104 22.9169674,3.25787889 C24.660372,3.20058608 26.3640245,3.79356668 27.7042313,4.91937043 C29.1040658,6.07668523 30.1376152,7.61786186 30.6856235,9.35383403 L44.8969258,48.8629569 C45.2376562,49.722349 45.4250581,50.6333048 45.4477734,51.5557191 C45.4477734,52.4265697 45.2035832,53.2802326 44.7379183,54.0107159 C44.2978079,54.7211468 43.6731352,55.2940751 42.9348857,55.6722075 C42.1568845,56.0732571 41.2965399,56.29097 40.421998,56.3024285 C37.9971327,56.482901 35.7767053,54.9359949 35.0838866,52.5841249 L32.8833352,45.7748743 L12.7149274,45.7748743 L10.5172157,52.5067798 C9.94933141,54.8844315 7.75161939,56.4943594 5.33527211,56.3081577 C3.92975861,56.3368042 2.5696761,55.7982518 1.56736037,54.8042214 C0.573562971,53.8932659 5.68434189e-14,52.5984482 5.68434189e-14,51.2406086 C0.0624671021,50.3984042 0.247029606,49.5733878 0.54800826,48.7856115 L15.1426324,9.27362411 Z M22.7607992,14.5789384 L15.9319915,35.6426405 L29.6662711,35.6426405 L22.9169674,14.5789384 L22.7607992,14.5789384 Z M48.5029904,61.295497 L48.5029904,22.5712857 C48.4547203,21.0472969 48.9572979,19.5576838 49.9141829,18.3774519 C50.8568706,17.2888884 52.2510264,16.7016371 53.6820946,16.7933057 C56.2943618,16.6414797 58.5772563,18.5407364 58.9407023,21.1475592 C59.9344997,19.5605485 61.3826043,18.3172945 63.1004542,17.5868112 C64.8978078,16.7617945 66.8570082,16.3550157 68.830406,16.4008498 C72.1241342,16.3235044 75.3610744,17.3519106 78.0130936,19.3285127 C80.5770907,21.3108437 82.5561672,23.9692302 83.7345271,27.0057494 C85.0463395,30.1912295 85.7107639,33.6116106 85.6937276,37.0606378 C85.7136036,40.349245 84.9895511,43.6006121 83.5783589,46.5655151 C82.2154368,49.5160948 80.1057469,52.0598958 77.4594064,53.9276416 C74.8471392,55.7896578 71.7124181,56.7636355 68.51523,56.7063429 C66.7945408,56.7063429 65.0908883,56.3826384 63.4894549,55.7524174 C61.8255541,55.1365199 60.2809091,54.2255641 58.937863,53.0596554 L58.937863,61.2152871 C58.937863,62.2580162 58.6965121,63.2892868 58.2336865,64.2231596 C57.8219704,65.082552 57.1660641,65.8044413 56.3483109,66.2857008 C55.539076,66.7612313 54.616264,67.0018611 53.679255,66.9961316 C52.2538658,67.0534245 50.8767466,66.4719025 49.9113433,65.4119854 C48.9402612,64.2661292 48.4348443,62.7994334 48.5001511,61.295497 L48.5029904,61.295497 Z M58.9407023,36.2728615 C58.8895926,38.9656237 59.6221634,41.6068222 61.0589103,43.8756176 C62.0754231,45.4970043 63.6910538,46.6428604 65.5451958,47.0553688 C67.4021771,47.4736061 69.3500199,47.1269847 70.948614,46.0928496 C71.1416945,45.9352943 71.3546511,45.8063853 71.581805,45.7032585 C72.83115,44.6347474 73.7965534,43.2740431 74.4070287,41.7414606 C75.662053,38.484364 75.662053,34.866323 74.4070287,31.6092268 C73.8561811,30.045133 72.9106541,28.650053 71.6613087,27.5700835 C70.3977664,26.5388129 68.8162087,25.980208 67.1892206,25.988802 C65.5650715,25.9171859 63.9721564,26.4528738 62.7171324,27.4956028 C61.473466,28.4867685 60.5222597,29.8016384 59.9628938,31.2969807 C59.275754,32.866804 58.9265053,34.562671 58.946381,36.2814555 L58.9407023,36.2728615 Z M92.6900611,50.4442386 L92.6900611,26.3812576 L90.3333416,26.3812576 C89.1067116,26.458603 87.9056366,25.9973957 87.039613,25.1150864 C86.1764291,24.2356418 85.7221216,23.0296282 85.784589,21.7921035 C85.784589,20.5746312 86.2672905,19.4058578 87.1191168,18.5436009 C87.962425,17.6756151 89.1351059,17.2144078 90.3333416,17.2774299 L92.6900611,17.2774299 L92.6900611,11.0153256 C92.6417908,9.48847214 93.1443683,7.99599441 94.1040927,6.8157625 C95.0467806,5.72719906 96.4380968,5.1428124 97.869165,5.2344809 C99.7914531,5.18864665 101.566091,6.2657515 102.423596,8.00458834 C102.886422,8.93846115 103.133452,9.96686713 103.133452,11.0124609 L103.133452,17.1886261 L106.114844,17.1886261 C107.40678,17.1313332 108.68168,17.523789 109.720909,18.3058358 C110.714706,19.1652279 111.242838,20.4629101 111.13494,21.7863742 C111.242838,23.1098381 110.717545,24.4046555 109.720909,25.2697772 C108.693038,26.0718764 107.40962,26.4643322 106.114844,26.3812576 L103.133452,26.3812576 L103.133452,50.4528323 C103.133452,51.5012909 102.886422,52.5296968 102.423596,53.460705 C102.01472,54.3258264 101.355974,55.0448513 100.538221,55.5232462 C99.7289857,56.0016412 98.806174,56.2451356 97.869165,56.2394063 C96.4437758,56.29097 95.069496,55.7123124 94.1040927,54.6523954 C93.1216529,53.4864867 92.6133967,51.9882796 92.6900611,50.4556971 L92.6900611,50.4442386 Z M128.7933,16.32064 C131.39421,16.3149107 133.961046,16.8821096 136.326284,17.9821316 C138.612018,19.0420483 140.642204,20.5774959 142.289068,22.4968051 C143.952969,24.4046555 145.259103,26.6046995 146.136484,28.9880804 C147.08769,31.431619 147.541997,34.0413066 147.471012,36.6653174 C147.465333,39.3093807 147.016704,41.936256 146.136484,44.4284932 C145.290336,46.7832277 144.012597,48.9603547 142.37709,50.8452882 C140.701832,52.6901168 138.674485,54.1740007 136.414306,55.1995417 C134.029192,56.3052933 131.422604,56.8467101 128.798979,56.7808235 C125.363279,56.8553041 121.984368,55.9214314 119.065443,54.0880613 C116.245898,52.2604207 113.945967,49.722349 112.392804,46.7259351 C110.831122,43.609206 110.027566,40.1659081 110.041763,36.6710467 C110.053121,34.0785468 110.504589,31.5060997 111.376291,29.0682906 C112.270709,26.6705864 113.571164,24.4476252 115.220867,22.4968051 C118.63953,18.5436009 123.597159,16.280535 128.801818,16.32064 L128.796139,16.32064 L128.7933,16.32064 Z M128.798979,25.8999981 C127.166312,25.8541637 125.570557,26.4156333 124.324051,27.4841444 C123.032115,28.5440611 122.052514,29.9420059 121.495988,31.5232874 C120.876994,33.1675913 120.558979,34.9121572 120.558979,36.6710467 C120.550461,38.4070189 120.871315,40.1258031 121.495988,41.7414606 C122.078069,43.2883663 123.051991,44.6490706 124.321212,45.6946645 C127.007304,47.6769958 130.658799,47.6769958 133.350571,45.6946645 C134.608434,44.6433414 135.582355,43.2826371 136.170116,41.7414606 C136.794788,40.1258031 137.112803,38.4070189 137.115643,36.6710467 C137.121322,34.9350744 136.803307,33.2162902 136.172955,31.6006328 C135.624947,30.0164866 134.645347,28.6156773 133.350571,27.5614895 C132.072831,26.4843847 130.462879,25.8942686 128.798979,25.8999981 L128.7933,25.8999981 L128.798979,25.8999981 Z M156.966036,1.11512774 C157.988227,1.13231559 158.982024,1.40732107 159.873603,1.90863317 C160.739626,2.43286241 161.463678,3.16907503 161.986132,4.04565505 C162.517104,4.87067153 162.789688,5.83319077 162.769812,6.8157625 C162.755615,8.41136729 162.139461,9.93822073 161.046284,11.0926709 C160.024092,12.1869636 158.618579,12.8286431 157.127883,12.8744773 C155.642865,12.9174469 154.203279,12.3645713 153.11862,11.3275714 C153.047635,11.2502261 152.891466,11.0926709 152.806284,11.0124609 C151.684712,9.90957432 151.037324,8.405638 151.006091,6.81862714 C150.989054,5.29463836 151.650639,3.83940093 152.809123,2.86542314 C153.916497,1.7482133 155.412872,1.12372165 156.974554,1.11799239 L156.966036,1.11512774 Z M151.789771,50.4442386 L151.789771,22.5712857 C151.738662,21.0472969 152.244078,19.554819 153.200963,18.3774519 C154.137972,17.2888884 155.529289,16.7045019 156.963196,16.7961702 C158.885484,16.750336 160.660122,17.8274408 161.514788,19.5662778 C161.980453,20.5030153 162.224643,21.5314211 162.224643,22.5741502 L162.224643,50.4471031 C162.224643,51.4955617 161.980453,52.5239675 161.514788,53.4549758 C161.105911,54.3200972 160.447166,55.039122 159.629412,55.517517 C158.820178,55.9930472 157.897366,56.2394063 156.960357,56.2336771 C155.534967,56.2852405 154.157848,55.7065832 153.192445,54.6466661 C152.175932,53.50081 151.664836,51.9825504 151.778413,50.4528323 L151.784092,50.4471031 L151.789771,50.4442386 Z M203.665995,5.71001124 L203.665995,50.4442386 C203.665995,51.4898322 203.421803,52.5182383 202.956138,53.452111 C202.550101,54.3115032 201.894194,55.0276635 201.082122,55.5146522 C200.270047,55.987318 199.350074,56.2308123 198.413066,56.2250831 C195.800797,56.4198788 193.512223,54.4948404 193.231122,51.8708296 C192.225966,53.4177354 190.811934,54.6495309 189.150873,55.4344424 C187.427344,56.2451356 185.553328,56.6776964 183.653753,56.7034781 C180.456565,56.760771 177.321846,55.7867931 174.709577,53.930506 C172.080275,52.0398433 169.967745,49.5075011 168.582106,46.5683798 C167.179432,43.6006121 166.45254,40.3521098 166.463899,37.066367 C166.449701,33.623069 167.088573,30.211282 168.346436,27.0114786 C169.524796,23.9692302 171.506712,21.3108437 174.076387,19.3285127 C176.734084,17.3519106 179.965345,16.32064 183.264754,16.4008498 C184.45163,16.4151731 185.635669,16.5440819 186.796994,16.7961702 C187.969674,17.0368001 189.105442,17.4349852 190.170225,17.9821316 C191.277599,18.5206839 192.311149,19.2139268 193.228282,20.0446728 L193.228282,5.7844919 C193.180011,4.26050311 193.682589,2.76802535 194.642314,1.59065808 C195.587841,0.502094646 196.979156,-0.0822920173 198.410226,0.00937648656 C199.369951,0.00937648656 200.312638,0.25287092 201.158786,0.71980735 C201.9595,1.22398409 202.606888,1.9372796 203.044161,2.78234855 C203.453037,3.70476282 203.668834,4.70165775 203.668834,5.71001124 L203.665995,5.71001124 Z M193.225443,36.2757263 C193.287909,33.6832264 192.543982,31.136561 191.107235,28.9880804 C189.732955,26.9971554 187.458577,25.836976 185.059266,25.8999981 C183.454996,25.8942686 181.898993,26.4528738 180.663844,27.4841444 C179.414499,28.5641139 178.466133,29.9563292 177.918123,31.5232874 C177.293452,33.1389448 176.975436,34.8605938 176.975436,36.5937013 C176.961238,37.8541433 177.1458,39.114585 177.526282,40.3120048 C177.852817,41.5523941 178.383789,42.7297615 179.093643,43.7954078 C179.75239,44.8037611 180.63829,45.6431008 181.677516,46.2446753 C182.716745,46.8806256 183.920659,47.1842776 185.135931,47.1155262 C186.791314,47.1584959 188.406946,46.5998908 189.684685,45.53138 C190.934029,44.4198992 191.885235,43.0019023 192.433245,41.4120268 C192.930144,39.7390768 193.19421,38.0031045 193.216924,36.2614031 L193.216924,36.2671323 L193.225443,36.2757263 Z M240.240577,40.0742397 L218.030624,40.0742397 C218.246422,42.3315763 219.421942,44.3855235 221.253369,45.697529 C223.192693,47.0267223 225.503981,47.6941835 227.846503,47.5996504 C229.209427,47.6082444 230.572349,47.3647498 231.850087,46.8834903 C233.269798,46.2475401 234.661113,45.5371092 236.007,44.7464685 C237.100176,44.0360376 238.335326,43.5719659 239.621583,43.4000874 C240.348475,43.4086811 241.058329,43.6292585 241.660286,44.0389021 C242.304834,44.4915154 242.861363,45.052985 243.307151,45.7003937 C243.704671,46.3449379 243.923306,47.084015 243.931825,47.8402803 C243.85516,49.0720756 243.324189,50.2236612 242.449647,51.0830533 C241.285483,52.257556 239.93392,53.2229399 238.446063,53.9333708 C236.64019,54.8214094 234.746297,55.508923 232.795614,55.995912 C230.864808,56.4542545 228.891411,56.7120721 226.909495,56.783688 C223.340343,56.8295224 219.81946,55.9300251 216.704615,54.1711359 C213.757295,52.5039151 211.355147,49.9973546 209.804821,46.9665649 C208.135242,43.7724905 207.297613,40.206013 207.368598,36.596566 C207.396994,31.3771909 209.299406,26.3411527 212.70671,22.4165949 C217.988033,16.4294963 226.529012,14.630502 233.74114,17.9907253 C236.007,19.0449131 238.034347,20.5545787 239.703926,22.4251889 C241.336593,24.2385066 242.639888,26.3296942 243.554182,28.6013541 C244.414525,30.7441051 244.88871,33.0214945 244.968211,35.3332596 C245.127219,36.636671 244.684271,37.9400824 243.761458,38.8682259 C242.835806,39.7963694 241.546709,40.2432534 240.251933,40.0828334 L240.251933,40.0771042 L240.240577,40.0742397 Z M217.800631,33.032953 L234.360135,33.032953 C234.178413,30.8644202 233.264119,28.8219315 231.770583,27.2521085 C230.242974,25.7481721 228.173038,24.9460727 226.040632,25.0348765 C223.956498,24.9489374 221.93199,25.7510366 220.466848,27.2521085 C218.976151,28.8362547 218.039143,30.8615554 217.797791,33.032953 L217.800631,33.032953 Z"
          fill="#26261D"
          fill-rule="nonzero"/>
      <path
          d="M157.07929,1 C158.121894,1.01753612 159.135537,1.2981139 160.04492,1.80958384 C160.928237,2.34443527 161.666749,3.0955654 162.199635,3.98990713 C162.741211,4.83164051 163.019238,5.8136628 162.998965,6.81614389 C162.984485,8.44407964 162.356026,10.0018709 161.241019,11.1797131 C160.198414,12.296179 158.764833,12.9508605 157.244369,12.9976235 C155.729697,13.0414637 154.261362,12.4773855 153.155043,11.4193733 C153.08264,11.3404608 152.923353,11.1797131 152.83647,11.0978779 C151.692501,9.97264409 151.032185,8.43823426 151.000328,6.81906658 C150.982951,5.26419797 151.657748,3.77947379 152.839366,2.78576077 C153.968854,1.64591346 155.49511,1.00876804 157.087978,1.00292269 L157.07929,1 Z"
          fill="#F16225"/>
    </g>
    <g transform="translate(53)">
      <path
          d="M107.009812,8.41887846 C94.1390594,5.50506854 80.9894552,4.02191306 67.7962801,4.00003761 C54.7425309,3.99128743 41.7410664,5.50944363 29.035882,8.53263076 C16.6618341,11.4333154 8.20913934,18.2890813 5.08948498,30.8324642 C1.72147829,44.1196123 0.00915404855,57.7830182 0.000439930261,71.4901749 C-0.0300594837,84.9479515 1.52541063,98.353227 4.62763672,111.447871 C6.93687806,123.243113 16.217414,132.413302 27.9945449,134.557096 C53.648909,140.480968 80.3097538,140.480968 105.964118,134.557096 C118.338166,131.652036 126.790861,124.800646 129.910515,112.13476 C133.278522,98.8476123 134.990846,85.1929567 134.99956,71.4814248 C135.03006,58.0236482 133.474589,44.6096223 130.372364,31.5193533 C128.063122,19.732861 118.782586,10.5626725 107.009812,8.41887846 L107.009812,8.41887846 Z"
          fill="#A95113"/>
      <path
          d="M107.009812,4.41887846 C94.1390594,1.50506854 80.9894552,0.0219130584 67.7962801,3.76087376e-05 C54.7425309,-0.00871257113 41.7410664,1.50944363 29.035882,4.53263076 C16.6618341,7.4333154 8.20913934,14.2890813 5.08948498,26.8324642 C1.72147829,40.1196123 0.00915404855,53.7830182 0.000439930261,67.4901749 C-0.0300594837,80.9479515 1.52541063,94.353227 4.62763672,107.447871 C6.93687806,119.243113 16.217414,128.413302 27.9945449,130.557096 C53.648909,136.480968 80.3097538,136.480968 105.964118,130.557096 C118.338166,127.652036 126.790861,120.800646 129.910515,108.13476 C133.278522,94.8476123 134.990846,81.1929567 134.99956,67.4814248 C135.03006,54.0236482 133.474589,40.6096223 130.372364,27.5193533 C128.063122,15.732861 118.782586,6.56267252 107.009812,4.41887846 L107.009812,4.41887846 Z"
          fill="#FFFFFF"/>
      <path
          d="M107.20481,4.41887846 C94.3106036,1.50506854 81.1370376,0.0219130584 67.9198214,3.76087376e-05 C54.8422851,-0.00871257113 41.8171288,1.50944363 29.0887924,4.53263076 C16.692196,7.4333154 8.22409838,14.2890813 5.09875925,26.8324642 C1.72461524,40.1196123 0.00917072944,53.7830182 0.000440731921,67.4901749 C-0.0301142594,80.9479515 1.52819029,94.353227 4.6360694,107.447871 C6.94951873,119.243113 16.2469661,128.413302 28.0455577,130.557096 C53.7466703,136.480968 80.4560976,136.480968 106.15721,130.557096 C118.553807,127.652036 127.021905,120.800646 130.147244,108.13476 C133.521388,94.8476123 135.236832,81.1929567 135.245562,67.4814248 C135.276117,54.0236482 133.717812,40.6096223 130.609934,27.5193533 C128.296484,15.732861 118.999037,6.56267252 107.20481,4.41887846 L107.20481,4.41887846 Z"
          fill="url(#a)"
          fill-rule="nonzero"/>
      <path
          d="M38.6663108,83.0708743 C42.9043214,86.2740184 90.2739515,126.990577 100.66469,131.803652 C104.473818,130.396742 118.770704,129.929849 126.503772,117.128722 C131.096808,111.163539 134.400577,86.4542785 134.879582,78.0688796 C135.357281,69.7063279 135.156399,61.1474216 135.156399,61.1474216 L104.390625,36.1568616 C104.390625,36.1568616 51.7784197,73.9198189 38.6663108,83.0708743 Z"
          fill="#E5602A"/>
      <path
          d="M34.187111 79.801678L33.1395113 78.7516565C31.6117617 76.9141187 30.677652 74.6390719 30.476862 72.2502728L29.9006822 38.7983351C29.7828272 36.2432826 31.5244617 35.3113885 33.6109311 36.8295447L65.3662969 59.8250174 35.6974005 81.0792044 34.187111 79.801678 34.187111 79.801678zM105.467541 72.4821527C105.249291 75.3872122 103.922331 78.0953931 101.757292 80.0335578L71.6213401 103.9653C69.4563007 105.592833 66.4837366 105.592833 64.3186972 103.9653L42.4151336 86.3074365 38.2465598 83.0567449 38.2640198 83.0392447 68.0333115 61.6800555 82.6298672 51.2235904 103.145361 36.5889147C104.882631 35.8889003 106.04372 36.8207945 106.04372 39.0302149L105.467541 72.4865275 105.467541 72.4821527z"
          fill="#FFFFFF"/>
    </g>
    <g transform="translate(0 220)">
      <path
          d="M6.68003789 11.7514896C6.20320969 11.5894262 5.7263815 11.430648 5.56707753 11.1087113 5.2484696 10.7878697 4.93094537 10.3049647 4.45411718 9.50012308L1.11306872 3.39427692C.636240529 2.42956199.795544493 2.26968869 1.74920088 2.26968869L2.06780881 2.26968869C3.18076916 2.26968869 3.49829339 2.42956199 3.97620529 3.39427692L6.20320969 7.89372489C6.52073392 8.69856652 6.83825815 9.17928145 6.99756211 9.34024977 7.15686608 9.50012308 7.47547401 9.66218643 7.79299824 9.66218643 8.11160617 9.66218643 8.4291304 9.50012308 8.58843436 9.34024977 8.74882203 9.17928145 9.06634626 8.69856652 9.38387048 7.89372489L11.6108749 3.39427692C12.0887868 2.42956199 12.406311 2.26968869 13.5192714 2.26968869L13.8367956 2.26968869C14.7915357 2.26968869 14.9508396 2.42956199 14.4740115 3.39427692L11.132963 9.50012308C10.6561348 10.3049647 10.3375269 10.947743 10.0200026 11.1087113 9.70247841 11.430648 9.38387048 11.5916163 8.90704229 11.7514896L8.90704229 17.0546842C8.90704229 18.0193991 8.74773833 18.1803674 7.79299824 18.1803674L7.47547401 18.1803674C6.52073392 18.1803674 6.36142996 18.0193991 6.36142996 17.0546842L6.36142996 11.7514896 6.68003789 11.7514896zM23.2202326 10.947305C23.2202326 8.85909683 22.5851841 8.05535023 20.1988758 8.05535023 17.8125674 8.05535023 17.1764352 9.01897014 17.1764352 10.947305L17.1764352 13.0366081C17.1764352 15.1259113 17.8125674 15.9296579 20.1988758 15.9296579 22.5851841 15.9296579 23.2202326 15.1259113 23.2202326 13.0366081L23.2202326 10.947305zM14.6319066 13.0377032L14.6319066 10.9484C14.6319066 7.57354027 16.5403031 5.64411041 20.1988758 5.64411041 24.0156687 5.64411041 25.7658449 7.41366697 25.7658449 10.9484L25.7658449 13.0377032C25.7658449 16.4114679 23.8563648 18.3419928 20.1988758 18.3419928 16.3820828 18.3419928 14.6319066 16.5735312 14.6319066 13.0377032L14.6319066 13.0377032zM30.6954899 13.5190751C30.6954899 15.1276633 31.3327057 15.93141 33.5586264 15.93141 35.7856308 15.93141 36.262459 15.1276633 36.262459 13.5190751L36.262459 6.93032398C36.262459 5.96670407 36.4228467 5.80573575 37.3765031 5.80573575L37.6940273 5.80573575C38.6487674 5.80573575 38.8069877 5.96670407 38.8069877 6.93032398L38.8069877 13.5190751C38.8069877 16.7340615 37.2171991 18.3415548 33.5586264 18.3415548 30.0593577 18.3415548 28.3102652 16.7340615 28.3102652 13.5190751L28.3102652 6.93032398C28.3102652 5.96670407 28.4695692 5.80573575 29.4232256 5.80573575L29.7418335 5.80573575C30.6954899 5.80573575 30.8547938 5.96670407 30.8547938 6.93032398L30.6954899 13.5190751zM43.7380414 17.0544652C43.7380414 18.0191801 43.5787374 18.1801484 42.6250811 18.1801484L42.3075568 18.1801484C41.3528167 18.1801484 41.1935128 18.0191801 41.1935128 17.0544652L41.1935128 9.98390407C41.1935128 7.08975928 42.784385 5.64432941 45.8057419 5.64432941L46.2836537 5.64432941C47.0790899 5.80529774 47.2383938 5.96626606 47.2383938 6.76891765L47.2383938 7.08975928C47.2383938 7.8946009 47.0790899 8.05447421 46.2836537 7.8946009L45.8057419 7.8946009C44.2159533 7.8946009 43.7380414 8.53847421 43.7380414 10.1437774L43.7380414 17.0544652zM58.8485101 11.430648L64.4143956 11.430648 62.983911 6.12526335C62.6653031 4.68092851 62.3477789 4.35899186 61.5523427 4.35899186 60.7569066 4.35899186 60.5986863 4.68092851 60.1207744 6.12526335L58.8485101 11.430648zM68.7091004 17.0546842C68.8684044 17.8584308 68.7091004 18.1803674 67.9136643 18.1803674L67.5961401 18.1803674C66.6414 18.1803674 66.482096 18.0193991 66.1645718 17.0546842L65.2109154 13.6798244 58.3716819 13.6798244 57.4169419 17.0546842C57.0994176 17.8584308 56.9401137 18.1803674 55.9853736 18.1803674L55.6678493 18.1803674C54.714193 18.1803674 54.554889 18.0193991 54.8724132 17.0546842L57.8948537 5.96539005C58.3716819 4.35789683 58.8485101 3.2333086 59.3253383 2.75259367 59.8032502 2.10872036 60.5986863 1.78787873 61.869867 1.78787873 63.143215 1.78787873 63.9375674 2.10872036 64.4143956 2.75259367 64.8923075 3.39427692 65.3691357 4.35899186 65.8459639 5.96539005L68.7091004 17.0546842zM73.162459 17.0544652C73.162459 18.0191801 73.0042388 18.1801484 72.0494987 18.1801484L71.7319744 18.1801484C70.7772344 18.1801484 70.6179304 18.0191801 70.6179304 17.0544652L70.6179304 10.464619C70.6179304 7.25291765 72.3670229 5.64432941 75.8662916 5.64432941 79.5248643 5.64432941 81.1146529 7.25291765 81.1146529 10.464619L81.1146529 17.0566552C81.1146529 18.0191801 80.9553489 18.1812434 80.0016925 18.1812434L79.6841683 18.1812434C78.7305119 18.1812434 78.5701242 18.0191801 78.5701242 17.0566552L78.5701242 10.464619C78.5701242 8.85931584 77.9329084 8.05556923 75.8662916 8.05556923 73.6403709 8.05556923 73.0042388 8.85931584 73.0042388 10.464619L73.162459 17.0544652zM86.2050106 13.0379222C86.2050106 15.1261303 86.840059 15.9298769 89.2263674 15.9298769 91.6126758 15.9298769 92.2488079 14.967352 92.2488079 13.0379222L92.2488079 10.948619C92.2488079 8.85931584 91.4533718 8.05556923 89.2263674 8.05556923 86.840059 8.05556923 86.2050106 9.01918914 86.2050106 10.948619L86.2050106 13.0379222zM94.7944203 13.1977955C94.7944203 16.7336235 92.7267198 18.50099 89.2263674 18.50099 85.5688784 18.50099 83.6604819 16.7336235 83.6604819 13.1977955L83.6604819 11.1084923C83.6604819 7.57266425 85.4095744 5.80529774 88.7484555 5.80529774 90.4986317 5.80529774 91.6115921 6.28820271 92.2488079 7.41279095L92.2488079 2.10959638C92.2488079 1.14707149 92.4081119.983913122 93.3617683.983913122L93.6803762.983913122C94.6329489.983913122 94.7944203 1.14707149 94.7944203 2.10959638L94.7944203 13.1977955zM99.8825022 17.0544652C99.8825022 18.0191801 99.7242819 18.1801484 98.7695419 18.1801484L98.4520176 18.1801484C97.4972775 18.1801484 97.3379736 18.0191801 97.3379736 17.0544652L97.3379736 9.98390407C97.3379736 7.08975928 98.9288458 5.64432941 101.950203 5.64432941L102.428115 5.64432941C103.222467 5.80529774 103.382855 5.96626606 103.382855 6.76891765L103.382855 7.08975928C103.382855 7.8946009 103.222467 8.05447421 102.428115 7.8946009L101.950203 7.8946009C100.360414 7.8946009 99.8825022 8.53847421 99.8825022 10.1437774L99.8825022 17.0544652zM113.083707 10.947305C113.083707 8.85909683 112.447575 8.05535023 110.061267 8.05535023 107.676042 8.05535023 107.038826 9.01897014 107.038826 10.947305L107.038826 13.0366081C107.038826 15.1259113 107.676042 15.9296579 110.061267 15.9296579 112.447575 15.9296579 113.083707 15.1259113 113.083707 13.0366081L113.083707 10.947305zM104.496465 13.0377032L104.496465 10.9484C104.496465 7.57354027 106.403778 5.64411041 110.061267 5.64411041 113.879144 5.64411041 115.62932 7.41366697 115.62932 10.9484L115.62932 13.0377032C115.62932 16.4114679 113.718756 18.3419928 110.061267 18.3419928 106.086254 18.3419928 104.496465 16.5735312 104.496465 13.0377032L104.496465 13.0377032zM118.333478 7.09019729C118.333478 6.1276724 118.492781 5.96670407 119.446438 5.96670407L119.763962 5.96670407C120.718702 5.96670407 120.878006 6.1276724 120.878006 7.09019729L120.878006 17.0570932C120.878006 18.0185231 120.718702 18.1816814 119.763962 18.1816814L119.446438 18.1816814C118.492781 18.1816814 118.333478 18.0185231 118.333478 17.0570932L118.333478 7.09019729zM118.492781.984351131C119.128914.340477828 120.083654.340477828 120.718702.984351131 121.355918 1.62603439 121.355918 2.59184434 120.718702 3.23462262 120.081486 3.87521086 119.128914 3.87521086 118.492781 3.23462262 117.857733 2.59184434 117.857733 1.62603439 118.492781.984351131L118.492781.984351131zM125.966413 13.0379222C125.966413 15.1261303 126.602545 15.9298769 128.98777 15.9298769 131.375162 15.9298769 132.011294 14.967352 132.011294 13.0379222L132.011294 10.948619C132.011294 8.85931584 131.214774 8.05556923 128.98777 8.05556923 126.602545 8.05556923 125.966413 9.01918914 125.966413 10.948619L125.966413 13.0379222zM134.554739 13.1977955C134.554739 16.7336235 132.489206 18.50099 128.98777 18.50099 125.330281 18.50099 123.422968 16.7336235 123.422968 13.1977955L123.422968 11.1084923C123.422968 7.57266425 125.170977 5.80529774 128.512026 5.80529774 130.261118 5.80529774 131.374078 6.28820271 132.010211 7.41279095L132.010211 2.10959638C132.010211 1.14707149 132.170598.983913122 133.123171.983913122L133.441779.983913122C134.395435.983913122 134.554739 1.14707149 134.554739 2.10959638L134.554739 13.1977955zM146.802288 11.430648L152.369257 11.430648 150.937689 6.12526335C150.620165 4.68092851 150.302641 4.35899186 149.506121 4.35899186 148.711768 4.35899186 148.552464 4.68092851 148.075636 6.12526335L146.802288 11.430648zM156.665046 17.0546842C156.823266 17.8584308 156.665046 18.1803674 155.868526 18.1803674L155.549918 18.1803674C154.596262 18.1803674 154.436958 18.0193991 154.11835 17.0546842L153.164693 13.6798244 146.32546 13.6798244 145.371804 17.0546842C145.053196 17.8584308 144.893892 18.1803674 143.940235 18.1803674L143.621627 18.1803674C142.667971 18.1803674 142.508667 18.0193991 142.827275 17.0546842L145.848632 5.96539005C146.326544 4.35789683 146.802288 3.2333086 147.2802 2.75259367 147.758112 2.10872036 148.552464 1.78787873 149.824729 1.78787873 151.098077 1.78787873 151.892429 2.10872036 152.369257 2.75259367 152.847169 3.39427692 153.325081 4.35899186 153.800826 5.96539005L156.665046 17.0546842z"
          fill="#2A2A22"/>
      <g transform="translate(158.22 5.48)">
        <mask fill="white" id="c">
          <use xlink:href="#b"/>
        </mask>
        <path
            d="M9.09929075,5.46766697 C9.09929075,3.37945882 8.46424229,2.57571222 6.07793392,2.57571222 C3.69162555,2.57571222 3.05549339,3.53933213 3.05549339,5.46766697 L3.05549339,7.55697014 C3.05549339,9.6462733 3.69162555,10.4500199 6.07793392,10.4500199 C8.46424229,10.4500199 9.09929075,9.6462733 9.09929075,7.55697014 L9.09929075,5.46766697 Z M0.510964758,5.46766697 C0.510964758,1.93183891 2.5786652,0.162282353 6.07901762,0.162282353 C9.89472687,0.162282353 11.6449031,1.77196561 11.6449031,5.46766697 L11.6449031,7.55697014 C11.6449031,11.0938932 9.89472687,12.8601647 6.55476211,12.8601647 C4.8067533,12.8601647 3.69270925,12.3794498 2.89727313,11.2537665 L2.89727313,16.3959928 C2.89727313,17.3596127 2.73796916,17.520581 1.78431278,17.520581 L1.46678855,17.520581 C0.510964758,17.520581 0.352744493,17.3596127 0.352744493,16.3959928 L0.510964758,5.46766697 Z"
            fill="#2A2A22"
            mask="url(#c)"/>
      </g>
      <g transform="translate(171.225 5.48)">
        <mask fill="white" id="e">
          <use xlink:href="#d"/>
        </mask>
        <path
            d="M9.61361498,5.46766697 C9.61361498,3.37945882 8.97856652,2.57571222 6.59225815,2.57571222 C4.20594978,2.57571222 3.56981762,3.53933213 3.56981762,5.46766697 L3.56981762,7.55697014 C3.56981762,9.6462733 4.20594978,10.4500199 6.59225815,10.4500199 C8.97856652,10.4500199 9.61361498,9.6462733 9.61361498,7.55697014 L9.61361498,5.46766697 Z M1.02528899,5.46766697 C1.02528899,1.93183891 3.09298943,0.162282353 6.59225815,0.162282353 C10.4090511,0.162282353 12.1592273,1.77196561 12.1592273,5.46766697 L12.1592273,7.55697014 C12.1592273,11.0938932 10.4090511,12.8601647 7.06908634,12.8601647 C5.31999383,12.8601647 4.20703348,12.3794498 3.41159736,11.2537665 L3.41159736,16.3959928 C3.41159736,17.3596127 3.25229339,17.520581 2.298637,17.520581 L1.98002907,17.520581 C1.02528899,17.520581 0.867068722,17.3596127 0.867068722,16.3959928 L1.02528899,5.46766697 Z"
            fill="#2A2A22"
            mask="url(#e)"/>
      </g>
      <path
          d="M191.495395 16.2513756C191.495395 15.448724 191.814003 15.1267873 192.450135 15.448724 193.722399 15.7684706 194.994663 16.0893122 196.426232 16.0893122 198.652152 16.0893122 199.605809 15.6085973 199.605809 14.3230407 199.605809 13.8401357 199.447589 13.3583258 199.130064 13.1984525 198.811456 12.8765158 198.333544 12.5545792 197.538108 11.9118009L194.198144 9.82359276C192.607271 8.85887783 191.812919 7.57222624 191.812919 5.80595475 191.812919 3.23374661 193.562011 1.94819005 197.2195 1.94819005 198.493932 1.94819005 199.605809 2.10915837 200.559465 2.43 201.354901 2.75303167 201.673509 2.91290498 201.673509 3.71555656L201.673509 4.19846154C201.673509 5.00220814 201.514205 5.16317647 200.719853 5.00220814 199.765113 4.68136652 198.493932 4.52149321 197.2195 4.52149321 195.31002 4.52149321 194.515668 5.00220814 194.515668 6.1278914 194.515668 6.93054299 194.834276 7.41344796 196.10654 8.05622624L199.605809 10.1444344C201.514205 11.2712127 202.468945 12.3936109 202.468945 14.484009 202.468945 17.2149955 200.559465 18.6615204 196.583368 18.6615204 195.1518 18.6615204 193.721315 18.5016471 192.607271 18.0187421 191.812919 17.6979005 191.653615 17.5380271 191.653615 16.7331855L191.495395 16.2513756zM203.424552 7.09019729C203.424552 6.44851403 203.582773 6.1276724 204.219989 6.1276724L205.492253 5.80573575 205.809777 3.55546425C205.970165 2.913781 206.128385 2.59184434 206.764517 2.59184434L207.082041 2.59184434C207.719257 2.59184434 208.036781 2.75281267 208.036781 3.55546425L208.036781 5.80573575 211.376746 5.80573575C212.172182 5.80573575 212.330403 5.96670407 212.330403 6.77045068L212.330403 7.09019729C212.330403 7.89394389 212.171099 8.05491222 211.376746 8.05491222L208.036781 8.05491222 208.036781 13.8410118C208.036781 15.2875367 208.672914 15.9292199 209.945178 15.9292199 210.740614 15.9292199 211.376746 15.9292199 211.853574 15.7693466 212.649011 15.6083783 212.807231 15.7693466 212.807231 16.5730932L212.807231 16.8939348C212.807231 17.6976814 212.649011 18.0185231 211.853574 18.1805864 211.217442 18.3415548 210.58131 18.3415548 209.945178 18.3415548 207.082041 18.3415548 205.492253 16.8939348 205.492253 13.8410118L205.492253 8.21588054 204.217821 8.21588054C203.582773 8.21588054 203.423469 8.05600724 203.423469 7.41322896L203.423469 7.09019729 203.424552 7.09019729zM222.987296 10.947305C222.987296 8.85909683 222.351164 8.05535023 219.964856 8.05535023 217.579631 8.05535023 216.943499 9.01897014 216.943499 10.947305L216.943499 13.0366081C216.943499 15.1259113 217.579631 15.9296579 219.964856 15.9296579 222.351164 15.9296579 222.987296 15.1259113 222.987296 13.0366081L222.987296 10.947305zM214.39897 13.0377032L214.39897 10.9484C214.39897 7.57354027 216.148063 5.64411041 219.964856 5.64411041 223.782732 5.64411041 225.531825 7.41366697 225.531825 10.9484L225.531825 13.0377032C225.531825 16.4114679 223.782732 18.3419928 219.964856 18.3419928 216.148063 18.3419928 214.39897 16.5735312 214.39897 13.0377032L214.39897 13.0377032zM230.463095 17.0544652C230.463095 18.0191801 230.303791 18.1801484 229.349051 18.1801484L229.031527 18.1801484C228.07787 18.1801484 227.917483 18.0191801 227.917483 17.0544652L227.917483 9.98390407C227.917483 7.08975928 229.508355 5.64432941 232.529712 5.64432941L233.008707 5.64432941C233.80306 5.80529774 233.962364 5.96626606 233.962364 6.76891765L233.962364 7.08975928C233.962364 7.8946009 233.80306 8.05447421 233.008707 7.8946009L232.529712 7.8946009C230.939923 7.8946009 230.463095 8.53847421 230.463095 10.1437774L230.463095 17.0544652zM237.620395 10.947305L243.346668 10.947305 243.346668 10.3045267C243.346668 8.69812851 242.391928 7.89328688 240.483531 7.89328688 238.574051 7.89328688 237.620395 8.69812851 237.620395 10.3045267L237.620395 10.947305zM245.572589 11.7510516C245.412201 12.7146715 245.253981 12.8767348 244.300324 12.8767348L237.461091 12.8767348 237.461091 13.3585448C237.461091 15.1259113 238.413663 15.9296579 240.960359 15.9296579 241.914016 15.9296579 243.026976 15.7686896 244.14102 15.6088163 244.936456 15.447848 245.09576 15.6088163 245.09576 16.4114679L245.09576 16.7334045C245.09576 17.5382462 244.935373 17.6970244 244.14102 18.0189611 243.187364 18.3419928 242.07332 18.3419928 240.960359 18.3419928 236.824959 18.3419928 234.916562 16.7334045 234.916562 13.0377032L234.916562 10.9484C234.916562 7.41366697 236.665655 5.64411041 240.324227 5.64411041 243.663108 5.64411041 245.571505 7.41366697 245.571505 10.7885267 245.572589 11.1093683 245.572589 11.43021 245.572589 11.7510516L245.572589 11.7510516z"
          fill="#2A2A22"/>
    </g>
  </g>
</svg>
